Coordinates
version=1
nRows=43
nColumns=12
inDegrees=yes

Units are S.I. units (second, meters, Newtons, ...)
Angles are in degrees

endheader
time	SC_y	SC_z	SC_x	AC_y	AC_z	AC_x	GH_y	GH_z	GH_yy	EL_x	PS_y
       0.0              -17.35          10.39          7.493          66.91         0.2766         -8.186          116.0          10.24          29.77          88.99          7.476
   0.04241              -17.36          10.39          7.497           66.9         0.2745         -8.183          116.0          10.24          29.79          88.98          7.491
   0.08482              -17.36          10.38          7.502           66.9         0.2722          -8.18          116.0          10.25          29.82          88.97          7.507
    0.1272              -17.36          10.38          7.507          66.89         0.2698         -8.177          116.0          10.26          29.84          88.97          7.524
    0.1696              -17.36          10.38          7.512          66.89         0.2672         -8.173          116.0          10.26          29.86          88.96          7.542
     0.212              -17.37          10.38          7.517          66.88         0.2645          -8.17          116.0          10.27          29.89          88.95          7.562
    0.2545              -17.37          10.38          7.523          66.87         0.2616         -8.166          116.0          10.28          29.92          88.94          7.582
    0.2969              -17.37          10.37           7.53          66.87         0.2585         -8.161          116.0          10.29          29.95          88.93          7.604
    0.3393              -17.38          10.37          7.537          66.86         0.2551         -8.157          116.0           10.3          29.98          88.92          7.628
    0.3817              -17.38          10.37          7.544          66.85         0.2515         -8.152          115.9          10.31          30.01          88.91          7.653
    0.4241              -17.38          10.37          7.552          66.84         0.2477         -8.147          115.9          10.32          30.05          88.89           7.68
    0.4665              -17.39          10.36           7.56          66.83         0.2435         -8.141          115.9          10.33          30.09          88.88           7.71
    0.5089              -17.39          10.36          7.569          66.82         0.2391         -8.135          115.9          10.34          30.13          88.87          7.741
    0.5513               -17.4          10.36          7.579          66.81         0.2342         -8.128          115.9          10.35          30.18          88.85          7.775
    0.5937               -17.4          10.35           7.59          66.79          0.229         -8.121          115.9          10.37          30.23          88.83          7.812
    0.6361              -17.41          10.35          7.601          66.78         0.2234         -8.113          115.9          10.38          30.28          88.82          7.852
    0.6785              -17.41          10.35          7.614          66.76         0.2172         -8.105          115.9           10.4          30.34           88.8          7.895
     0.721              -17.42          10.34          7.627          66.75         0.2105         -8.096          115.9          10.42           30.4          88.78          7.943
    0.7634              -17.43          10.34          7.642          66.73         0.2032         -8.086          115.9          10.44          30.47          88.75          7.994
    0.8058              -17.44          10.33          7.658          66.71         0.1951         -8.075          115.8          10.46          30.55          88.73          8.051
    0.8482              -17.45          10.32          7.676          66.69         0.1863         -8.063          115.8          10.49          30.63           88.7          8.113
    0.8906              -17.46          10.32          7.696          66.67         0.1766          -8.05          115.8          10.51          30.73          88.67          8.182
     0.933              -17.47          10.31          7.718          66.64         0.1659         -8.035          115.8          10.54          30.83          88.63          8.257
    0.9754              -17.48           10.3          7.742          66.61         0.1541         -8.019          115.8          10.57          30.94           88.6          8.341
     1.018              -17.49          10.29          7.769          66.58         0.1409         -8.001          115.8          10.61          31.07          88.55          8.434
      1.06              -17.51          10.28          7.799          66.54         0.1262         -7.981          115.7          10.65          31.21          88.51          8.538
     1.103              -17.52          10.27          7.832           66.5         0.1097         -7.958          115.7           10.7          31.37          88.45          8.654
     1.145              -17.54          10.26           7.87          66.46        0.09115         -7.933          115.7          10.75          31.54          88.39          8.785
     1.187              -17.57          10.24          7.912           66.4         0.0702         -7.905          115.6          10.81          31.74          88.33          8.933
      1.23              -17.59          10.22          7.961          66.35        0.04642         -7.872          115.6          10.87          31.97          88.25            9.1
     1.272              -17.62          10.21          8.016          66.28        0.01927         -7.835          115.5          10.95          32.23          88.16          9.292
     1.315              -17.65          10.18          8.079           66.2       -0.01189         -7.793          115.5          11.03          32.53          88.06          9.512
     1.357              -17.69          10.16          8.153          66.12       -0.04786         -7.743          115.4          11.13          32.87          87.95          9.766
     1.399              -17.73          10.13          8.238          66.01       -0.08966         -7.686          115.3          11.25          33.27          87.82          10.06
     1.442              -17.78          10.09          8.337          65.89        -0.1386          -7.62          115.3          11.38          33.73          87.66          10.41
     1.484              -17.84          10.05          8.454          65.75        -0.1962         -7.541          115.2          11.54          34.28          87.48          10.81
     1.527              -17.91          10.01          8.593          65.59        -0.2647         -7.448          115.0          11.73          34.94          87.26           11.3
     1.569              -17.99          9.948           8.76          65.38        -0.3469         -7.336          114.9          11.95          35.72          86.99          11.88
     1.612               -18.1          9.878          8.962          65.14        -0.4462           -7.2          114.7          12.23          36.67          86.68          12.58
     1.654              -18.22          9.793          9.209          64.84        -0.5676         -7.034          114.5          12.56          37.83          86.29          13.43
     1.696              -18.37          9.688          9.514          64.48        -0.7174          -6.83          114.2          12.98          39.25          85.81          14.49
     1.739              -18.57          9.556          9.894          64.02        -0.9042         -6.575          113.9          13.49          41.04          85.21          15.81
     1.781              -18.81          9.391          10.37          63.44          -1.14         -6.254          113.5          14.14          43.28          84.46          17.47
